<svg width="40" height="8" viewBox="0 0 40 8" fill="none" xmlns="http://www.w3.org/2000/svg">
<g id="Get it on">
<path d="M6.91805 4.24319C6.91805 5.08119 6.67005 5.74819 6.17305 6.24619C5.60905 6.83819 4.87305 7.13419 3.96905 7.13419C3.10305 7.13419 2.36605 6.83419 1.76105 6.23419C1.15505 5.63319 0.852051 4.88919 0.852051 4.00119C0.852051 3.11219 1.15505 2.36819 1.76105 1.76819C2.36605 1.16719 3.10305 0.867188 3.96905 0.867188C4.39905 0.867188 4.81005 0.951188 5.20005 1.11819C5.59105 1.28619 5.90405 1.50919 6.13805 1.78819L5.61105 2.31619C5.21405 1.84119 4.66705 1.60419 3.96805 1.60419C3.33605 1.60419 2.79005 1.82619 2.32905 2.27019C1.86805 2.71419 1.63805 3.29119 1.63805 4.00019C1.63805 4.70919 1.86805 5.28619 2.32905 5.73019C2.79005 6.17419 3.33605 6.39619 3.96805 6.39619C4.63805 6.39619 5.19705 6.17319 5.64405 5.72619C5.93405 5.43519 6.10205 5.03019 6.14705 4.51119H3.96805V3.79019H6.87505C6.90505 3.94719 6.91805 4.09819 6.91805 4.24319Z" fill="white"/>
<path d="M11.5281 1.73724H8.79615V3.63924H11.2601V4.36024H8.79615V6.26224H11.5281V7.00024H8.02515V1.00024H11.5281V1.73724Z" fill="white"/>
<path d="M14.779 7.00024H14.008V1.73724H12.332V1.00024H16.455V1.73724H14.779V7.00024Z" fill="white"/>
<path d="M19.438 7.00024V1.00024H20.209V7.00024H19.438Z" fill="white"/>
<path d="M23.6281 7.00024H22.8572V1.73724H21.1812V1.00024H25.3042V1.73724H23.6281V7.00024Z" fill="white"/>
<path d="M33.1089 6.22523C32.5189 6.83123 31.7859 7.13424 30.9089 7.13424C30.0319 7.13424 29.2989 6.83123 28.7099 6.22523C28.1199 5.61924 27.8259 4.87723 27.8259 4.00023C27.8259 3.12323 28.1199 2.38123 28.7099 1.77523C29.2989 1.16923 30.0319 0.865234 30.9089 0.865234C31.7809 0.865234 32.5129 1.17023 33.1049 1.77923C33.6969 2.38823 33.9929 3.12823 33.9929 4.00023C33.9929 4.87723 33.6979 5.61924 33.1089 6.22523ZM29.2789 5.72223C29.7229 6.17223 30.2659 6.39623 30.9089 6.39623C31.5519 6.39623 32.0959 6.17123 32.5389 5.72223C32.9829 5.27223 33.2059 4.69823 33.2059 4.00023C33.2059 3.30223 32.9829 2.72823 32.5389 2.27823C32.0959 1.82823 31.5519 1.60423 30.9089 1.60423C30.2659 1.60423 29.7229 1.82923 29.2789 2.27823C28.8359 2.72823 28.6129 3.30223 28.6129 4.00023C28.6129 4.69823 28.8359 5.27223 29.2789 5.72223Z" fill="white"/>
<path d="M35.0749 7.00024V1.00024H36.013L38.929 5.66724H38.9619L38.929 4.51124V1.00024H39.6999V7.00024H38.8949L35.844 2.10625H35.8109L35.844 3.26224V7.00024H35.0749Z" fill="white"/>
<path d="M6.91805 4.24319C6.91805 5.08119 6.67005 5.74819 6.17305 6.24619C5.60905 6.83819 4.87305 7.13419 3.96905 7.13419C3.10305 7.13419 2.36605 6.83419 1.76105 6.23419C1.15505 5.63319 0.852051 4.88919 0.852051 4.00119C0.852051 3.11219 1.15505 2.36819 1.76105 1.76819C2.36605 1.16719 3.10305 0.867188 3.96905 0.867188C4.39905 0.867188 4.81005 0.951188 5.20005 1.11819C5.59105 1.28619 5.90405 1.50919 6.13805 1.78819L5.61105 2.31619C5.21405 1.84119 4.66705 1.60419 3.96805 1.60419C3.33605 1.60419 2.79005 1.82619 2.32905 2.27019C1.86805 2.71419 1.63805 3.29119 1.63805 4.00019C1.63805 4.70919 1.86805 5.28619 2.32905 5.73019C2.79005 6.17419 3.33605 6.39619 3.96805 6.39619C4.63805 6.39619 5.19705 6.17319 5.64405 5.72619C5.93405 5.43519 6.10205 5.03019 6.14705 4.51119H3.96805V3.79019H6.87505C6.90505 3.94719 6.91805 4.09819 6.91805 4.24319Z" stroke="white" stroke-width="0.2" stroke-miterlimit="10"/>
<path d="M11.5281 1.73724H8.79615V3.63924H11.2601V4.36024H8.79615V6.26224H11.5281V7.00024H8.02515V1.00024H11.5281V1.73724Z" stroke="white" stroke-width="0.2" stroke-miterlimit="10"/>
<path d="M14.779 7.00024H14.008V1.73724H12.332V1.00024H16.455V1.73724H14.779V7.00024Z" stroke="white" stroke-width="0.2" stroke-miterlimit="10"/>
<path d="M19.438 7.00024V1.00024H20.209V7.00024H19.438Z" stroke="white" stroke-width="0.2" stroke-miterlimit="10"/>
<path d="M23.6281 7.00024H22.8572V1.73724H21.1812V1.00024H25.3042V1.73724H23.6281V7.00024Z" stroke="white" stroke-width="0.2" stroke-miterlimit="10"/>
<path d="M33.1089 6.22523C32.5189 6.83123 31.7859 7.13424 30.9089 7.13424C30.0319 7.13424 29.2989 6.83123 28.7099 6.22523C28.1199 5.61924 27.8259 4.87723 27.8259 4.00023C27.8259 3.12323 28.1199 2.38123 28.7099 1.77523C29.2989 1.16923 30.0319 0.865234 30.9089 0.865234C31.7809 0.865234 32.5129 1.17023 33.1049 1.77923C33.6969 2.38823 33.9929 3.12823 33.9929 4.00023C33.9929 4.87723 33.6979 5.61924 33.1089 6.22523ZM29.2789 5.72223C29.7229 6.17223 30.2659 6.39623 30.9089 6.39623C31.5519 6.39623 32.0959 6.17123 32.5389 5.72223C32.9829 5.27223 33.2059 4.69823 33.2059 4.00023C33.2059 3.30223 32.9829 2.72823 32.5389 2.27823C32.0959 1.82823 31.5519 1.60423 30.9089 1.60423C30.2659 1.60423 29.7229 1.82923 29.2789 2.27823C28.8359 2.72823 28.6129 3.30223 28.6129 4.00023C28.6129 4.69823 28.8359 5.27223 29.2789 5.72223Z" stroke="white" stroke-width="0.2" stroke-miterlimit="10"/>
<path d="M35.0749 7.00024V1.00024H36.013L38.929 5.66724H38.9619L38.929 4.51124V1.00024H39.6999V7.00024H38.8949L35.844 2.10625H35.8109L35.844 3.26224V7.00024H35.0749Z" stroke="white" stroke-width="0.2" stroke-miterlimit="10"/>
</g>
</svg>
