<svg width="86" height="18" viewBox="0 0 86 18" fill="none" xmlns="http://www.w3.org/2000/svg">
<path id="Google Play" d="M27.636 4.75087C25.284 4.75087 23.367 6.53988 23.367 9.00388C23.367 11.4529 25.284 13.2569 27.636 13.2569C29.989 13.2569 31.906 11.4529 31.906 9.00388C31.905 6.53988 29.988 4.75087 27.636 4.75087ZM27.636 11.5829C26.347 11.5829 25.236 10.5199 25.236 9.00488C25.236 7.47388 26.348 6.42687 27.636 6.42687C28.925 6.42687 30.036 7.47388 30.036 9.00488C30.036 10.5189 28.925 11.5829 27.636 11.5829ZM18.322 4.75087C15.97 4.75087 14.053 6.53988 14.053 9.00388C14.053 11.4529 15.97 13.2569 18.322 13.2569C20.675 13.2569 22.592 11.4529 22.592 9.00388C22.592 6.53988 20.675 4.75087 18.322 4.75087ZM18.322 11.5829C17.033 11.5829 15.922 10.5199 15.922 9.00488C15.922 7.47388 17.034 6.42687 18.322 6.42687C19.611 6.42687 20.722 7.47388 20.722 9.00488C20.723 10.5189 19.611 11.5829 18.322 11.5829ZM7.24399 6.05687V7.86088H11.562C11.433 8.87588 11.095 9.61687 10.579 10.1319C9.95099 10.7599 8.96799 11.4529 7.24399 11.4529C4.58599 11.4529 2.50799 9.30988 2.50799 6.65188C2.50799 3.99388 4.58599 1.85087 7.24399 1.85087C8.67799 1.85087 9.72499 2.41487 10.498 3.13987L11.771 1.86688C10.691 0.835876 9.25799 0.0468759 7.24399 0.0468759C3.60299 0.0468759 0.541992 3.01088 0.541992 6.65188C0.541992 10.2929 3.60299 13.2569 7.24399 13.2569C9.20899 13.2569 10.692 12.6119 11.851 11.4039C13.043 10.2119 13.414 8.53587 13.414 7.18287C13.414 6.76487 13.382 6.37787 13.317 6.05587H7.24399V6.05687ZM52.552 7.45788C52.198 6.50788 51.118 4.75087 48.911 4.75087C46.72 4.75087 44.899 6.47488 44.899 9.00388C44.899 11.3879 46.704 13.2569 49.12 13.2569C51.069 13.2569 52.197 12.0649 52.665 11.3719L51.215 10.4049C50.732 11.1139 50.071 11.5809 49.12 11.5809C48.17 11.5809 47.493 11.1459 47.058 10.2919L52.745 7.93987L52.552 7.45788ZM46.752 8.87587C46.704 7.23187 48.025 6.39488 48.976 6.39488C49.717 6.39488 50.345 6.76588 50.555 7.29688L46.752 8.87587ZM42.129 12.9999H43.997V0.498876H42.129V12.9999ZM39.067 5.70187H39.003C38.584 5.20187 37.778 4.75087 36.764 4.75087C34.637 4.75087 32.688 6.61987 32.688 9.02087C32.688 11.4049 34.637 13.2579 36.764 13.2579C37.779 13.2579 38.584 12.8069 39.003 12.2919H39.067V12.9039C39.067 14.5309 38.197 15.4009 36.796 15.4009C35.652 15.4009 34.943 14.5799 34.653 13.8869L33.026 14.5639C33.493 15.6909 34.733 17.0769 36.796 17.0769C38.987 17.0769 40.84 15.7879 40.84 12.6459V5.00987H39.068V5.70187H39.067ZM36.925 11.5829C35.636 11.5829 34.557 10.5029 34.557 9.02087C34.557 7.52187 35.636 6.42687 36.925 6.42687C38.197 6.42687 39.196 7.52187 39.196 9.02087C39.196 10.5029 38.197 11.5829 36.925 11.5829ZM61.306 0.498876H56.835V12.9999H58.7V8.26388H61.305C63.373 8.26388 65.407 6.76688 65.407 4.38188C65.407 1.99688 63.374 0.498876 61.306 0.498876ZM61.354 6.52387H58.7V2.23888H61.354C62.749 2.23888 63.541 3.39388 63.541 4.38188C63.541 5.34987 62.749 6.52387 61.354 6.52387ZM72.886 4.72888C71.535 4.72888 70.136 5.32388 69.557 6.64288L71.213 7.33387C71.567 6.64287 72.227 6.41687 72.918 6.41687C73.883 6.41687 74.864 6.99588 74.88 8.02488V8.15387C74.542 7.96087 73.818 7.67188 72.934 7.67188C71.149 7.67188 69.331 8.65287 69.331 10.4859C69.331 12.1589 70.795 13.2359 72.435 13.2359C73.689 13.2359 74.381 12.6729 74.815 12.0129H74.879V12.9779H76.681V8.18488C76.682 5.96688 75.024 4.72888 72.886 4.72888ZM72.66 11.5799C72.05 11.5799 71.197 11.2739 71.197 10.5179C71.197 9.55288 72.259 9.18287 73.176 9.18287C73.995 9.18287 74.382 9.35988 74.88 9.60088C74.735 10.7599 73.738 11.5799 72.66 11.5799ZM83.243 5.00187L81.104 10.4219H81.04L78.82 5.00187H76.81L80.139 12.5769L78.241 16.7909H80.187L85.318 5.00187H83.243ZM66.437 12.9999H68.302V0.498876H66.437V12.9999Z" fill="white"/>
</svg>
